<svg width="811" height="215" viewBox="0 0 811 215" fill="none" xmlns="http://www.w3.org/2000/svg">
<path d="M65.2 2.89999C88 2.89999 107.7 7.19999 124.3 15.8C141.1 24.2 153.9 36.3 162.7 52.1C171.7 67.9 176.2 86.5 176.2 107.9C176.2 129.3 171.7 147.9 162.7 163.7C153.9 179.3 141.1 191.3 124.3 199.7C107.7 207.9 88 212 65.2 212H0.100002V2.89999H65.2ZM65.2 189.5C92.2 189.5 112.8 182.4 127 168.2C141.2 153.8 148.3 133.7 148.3 107.9C148.3 81.9 141.1 61.6 126.7 47C112.5 32.4 92 25.1 65.2 25.1H27.4V189.5H65.2ZM239.509 2.89999V212H212.209V2.89999H239.509ZM414.738 2.89999V25.1H357.738V212H330.438V25.1H273.138V2.89999H414.738ZM577.042 2.89999V25.1H520.042V212H492.742V25.1H435.442V2.89999H577.042ZM705.447 214.1C686.047 214.1 668.347 209.6 652.347 200.6C636.347 191.4 623.647 178.7 614.247 162.5C605.047 146.1 600.447 127.7 600.447 107.3C600.447 86.9 605.047 68.6 614.247 52.4C623.647 36 636.347 23.3 652.347 14.3C668.347 5.09999 686.047 0.499987 705.447 0.499987C725.047 0.499987 742.847 5.09999 758.847 14.3C774.847 23.3 787.447 35.9 796.647 52.1C805.847 68.3 810.447 86.7 810.447 107.3C810.447 127.9 805.847 146.3 796.647 162.5C787.447 178.7 774.847 191.4 758.847 200.6C742.847 209.6 725.047 214.1 705.447 214.1ZM705.447 190.4C720.047 190.4 733.147 187 744.747 180.2C756.547 173.4 765.747 163.7 772.347 151.1C779.147 138.5 782.547 123.9 782.547 107.3C782.547 90.5 779.147 75.9 772.347 63.5C765.747 50.9 756.647 41.2 745.047 34.4C733.447 27.6 720.247 24.2 705.447 24.2C690.647 24.2 677.447 27.6 665.847 34.4C654.247 41.2 645.047 50.9 638.247 63.5C631.647 75.9 628.347 90.5 628.347 107.3C628.347 123.9 631.647 138.5 638.247 151.1C645.047 163.7 654.247 173.4 665.847 180.2C677.647 187 690.847 190.4 705.447 190.4Z" fill="#FF6392" fill-opacity="0.8"/>
</svg>
